<svg width="16" height="16" viewBox="0 0 16 16" fill="currentColor" xmlns="http://www.w3.org/2000/svg">
<path d="M10 14.6667C9.7487 14.6667 9.5167 14.5247 9.40336 14.298L7.4247 10.3407C7.31603 10.1233 7.3347 9.86334 7.4727 9.66268L10.6667 5.33334L6.3367 8.52668C6.13603 8.66534 5.87603 8.68268 5.6587 8.57468L1.70203 6.59668C1.4647 6.47734 1.32003 6.22868 1.3347 5.96334C1.3487 5.69801 1.52003 5.46601 1.76936 5.37468L14.436 0.708009C14.6794 0.619342 14.9534 0.677342 15.138 0.862009C15.322 1.04534 15.382 1.32001 15.292 1.56401L10.6254 14.2307C10.5334 14.48 10.302 14.6513 10.0367 14.6653C10.0247 14.666 10.012 14.6667 10 14.6667Z" />
</svg>
