<svg width="20" height="20" viewBox="0 0 20 20" fill="currentColor" xmlns="http://www.w3.org/2000/svg">
<path d="M9.75916 6.74862C7.96882 6.74862 6.50777 8.20967 6.50777 10C6.50777 11.7903 7.96882 13.2514 9.75916 13.2514C11.5495 13.2514 13.0105 11.7903 13.0105 10C13.0105 8.20967 11.5495 6.74862 9.75916 6.74862ZM19.5109 10C19.5109 8.65359 19.5231 7.31938 19.4475 5.97541C19.3718 4.41435 19.0157 3.02891 17.8742 1.88739C16.7302 0.743433 15.3472 0.389757 13.7862 0.314143C12.4398 0.23853 11.1056 0.250726 9.7616 0.250726C8.41519 0.250726 7.08097 0.23853 5.737 0.314143C4.17595 0.389757 2.79051 0.745872 1.64899 1.88739C0.50503 3.03135 0.151354 4.41435 0.07574 5.97541C0.000126414 7.32182 0.0123222 8.65603 0.0123222 10C0.0123222 11.344 0.000126414 12.6806 0.07574 14.0246C0.151354 15.5856 0.507469 16.9711 1.64899 18.1126C2.79295 19.2566 4.17595 19.6102 5.737 19.6859C7.08341 19.7615 8.41763 19.7493 9.7616 19.7493C11.108 19.7493 12.4422 19.7615 13.7862 19.6859C15.3472 19.6102 16.7327 19.2541 17.8742 18.1126C19.0182 16.9686 19.3718 15.5856 19.4475 14.0246C19.5255 12.6806 19.5109 11.3464 19.5109 10ZM9.75916 15.0027C6.99072 15.0027 4.75647 12.7684 4.75647 10C4.75647 7.23157 6.99072 4.99731 9.75916 4.99731C12.5276 4.99731 14.7619 7.23157 14.7619 10C14.7619 12.7684 12.5276 15.0027 9.75916 15.0027ZM14.9667 5.96077C14.3204 5.96077 13.7984 5.43879 13.7984 4.79242C13.7984 4.14604 14.3204 3.62407 14.9667 3.62407C15.6131 3.62407 16.1351 4.14604 16.1351 4.79242C16.1353 4.9459 16.1052 5.09792 16.0465 5.23976C15.9879 5.38159 15.9018 5.51047 15.7933 5.619C15.6848 5.72753 15.5559 5.81358 15.4141 5.87223C15.2722 5.93087 15.1202 5.96096 14.9667 5.96077Z" />
</svg>
