<svg width="25" height="21" viewBox="0 0 25 21" fill="none" xmlns="http://www.w3.org/2000/svg">
<path id="&#226;&#128;&#156;" d="M5.43478 10.4548C6.76328 10.5754 7.85024 11.0882 8.69565 11.9932C9.54106 12.8982 9.96377 14.0445 9.96377 15.4321C9.96377 16.9404 9.51087 18.1772 8.60507 19.1425C7.69928 20.0475 6.55193 20.5 5.16304 20.5C3.593 20.5 2.32488 19.9268 1.3587 18.7805C0.452898 17.6342 0 15.8545 0 13.4412C0 8.79563 1.53985 4.78356 4.61956 1.40498C5.22343 0.801659 5.91787 0.5 6.7029 0.5C7.36715 0.5 7.94082 0.741328 8.42391 1.22398C8.907 1.6463 9.14855 2.15912 9.14855 2.76244C9.14855 3.42609 8.907 3.99925 8.42391 4.4819C6.85386 6.11086 5.85749 8.10181 5.43478 10.4548ZM20.471 10.4548C21.7995 10.5754 22.8865 11.0882 23.7319 11.9932C24.5773 12.8982 25 14.0445 25 15.4321C25 16.9404 24.5471 18.1772 23.6413 19.1425C22.7355 20.0475 21.5882 20.5 20.1993 20.5C18.6292 20.5 17.3611 19.9268 16.3949 18.7805C15.4891 17.6342 15.0362 15.8545 15.0362 13.4412C15.0362 8.79563 16.5761 4.78356 19.6558 1.40498C20.2597 0.801659 20.9541 0.5 21.7391 0.5C22.4034 0.5 22.9771 0.741328 23.4601 1.22398C23.9432 1.6463 24.1848 2.15912 24.1848 2.76244C24.1848 3.42609 23.9432 3.99925 23.4601 4.4819C21.8901 6.11086 20.8937 8.10181 20.471 10.4548Z" fill="#C2C2C2"/>
</svg>
