<svg width="25" height="21" viewBox="0 0 25 21" fill="none" xmlns="http://www.w3.org/2000/svg">
<path d="M19.5652 10.4548C18.2367 10.5754 17.1498 11.0882 16.3043 11.9932C15.4589 12.8982 15.0362 14.0445 15.0362 15.4321C15.0362 16.9404 15.4891 18.1772 16.3949 19.1425C17.3007 20.0475 18.4481 20.5 19.837 20.5C21.407 20.5 22.6751 19.9268 23.6413 18.7805C24.5471 17.6342 25 15.8545 25 13.4412C25 8.79563 23.4601 4.78356 20.3804 1.40498C19.7766 0.801659 19.0821 0.5 18.2971 0.5C17.6329 0.5 17.0592 0.741328 16.5761 1.22398C16.093 1.6463 15.8514 2.15912 15.8514 2.76244C15.8514 3.42609 16.093 3.99925 16.5761 4.4819C18.1461 6.11086 19.1425 8.10181 19.5652 10.4548ZM4.52899 10.4548C3.20048 10.5754 2.11353 11.0882 1.26812 11.9932C0.422709 12.8982 0 14.0445 0 15.4321C0 16.9404 0.4529 18.1772 1.3587 19.1425C2.2645 20.0475 3.41184 20.5 4.80073 20.5C6.37078 20.5 7.63889 19.9268 8.60507 18.7805C9.51087 17.6342 9.96377 15.8545 9.96377 13.4412C9.96377 8.79563 8.42392 4.78356 5.3442 1.40498C4.74034 0.801659 4.0459 0.5 3.26087 0.5C2.59662 0.5 2.02295 0.741328 1.53986 1.22398C1.05676 1.6463 0.81522 2.15912 0.81522 2.76244C0.81522 3.42609 1.05676 3.99925 1.53986 4.4819C3.1099 6.11086 4.10628 8.10181 4.52899 10.4548Z" fill="#C2C2C2"/>
</svg>
