<svg width="44" height="44" viewBox="0 0 44 44" fill="currentColor" xmlns="http://www.w3.org/2000/svg">
<g clip-path="url(#clip0_11481_287)">
<path d="M43.7452 43.7521C43.5104 43.9838 43.1633 44.0611 42.8528 43.9499L7.15852 31.2228C5.91845 31.9811 4.34553 32.1587 2.9029 31.5613C0.50826 30.5694 -0.633074 27.8141 0.358815 25.4193C2.69794 19.7725 6.07519 14.718 10.3971 10.3961C14.7189 6.07421 19.7734 2.69688 25.4203 0.357838C26.0067 0.114979 26.6146 -3.8147e-06 27.213 -3.8147e-06C29.0585 8.01086e-05 30.8133 1.09364 31.5622 2.90201C32.0662 4.11871 32.0186 5.42823 31.5365 6.55263L43.9546 42.8624C44.0613 43.1745 43.98 43.5203 43.7452 43.7521ZM12.5631 31.3252L16.3461 32.6739C16.7902 32.2007 17.0067 31.5493 16.92 30.8905C16.8435 30.3104 16.5458 29.7947 16.0817 29.4385C15.6175 29.0823 15.0428 28.9284 14.4622 29.0046C13.8823 29.081 13.3666 29.3786 13.0104 29.8429C12.6822 30.2706 12.5261 30.7924 12.5631 31.3252ZM29.9743 3.55986C29.345 2.04066 27.5969 1.31664 26.0781 1.94605C15.0746 6.50373 6.50471 15.0737 1.94685 26.0772C1.64203 26.813 1.64203 27.6235 1.94685 28.3595C2.25167 29.0954 2.82479 29.6685 3.56067 29.9733C4.29655 30.2781 5.10711 30.2781 5.84299 29.9733C6.57887 29.6685 7.15199 29.0954 7.45681 28.3595C9.40767 23.6495 12.2247 19.4336 15.8296 15.8287C19.4345 12.2238 23.6504 9.40687 28.3604 7.45592C29.8796 6.82677 30.6036 5.07889 29.9743 3.55986ZM37.6092 29.6202C37.5314 29.6221 37.4536 29.6265 37.3759 29.6367C36.7959 29.7131 36.2803 30.0108 35.9242 30.4749C35.5679 30.9391 35.4139 31.5142 35.4902 32.0942C35.6479 33.2917 36.75 34.1375 37.9479 33.98C38.3174 33.9314 38.6644 33.7881 38.9602 33.57L37.6092 29.6202ZM39.5315 35.241C39.1128 35.469 38.6527 35.6208 38.1722 35.6841C36.0348 35.9662 34.0675 34.4557 33.7861 32.3185C33.6498 31.2833 33.9248 30.257 34.5605 29.4285C35.1728 28.6306 36.0494 28.1093 37.0382 27.9503L35.3301 22.9557L33.3657 24.4631C32.9892 24.7518 32.4496 24.681 32.1608 24.3044C31.8719 23.9279 31.9429 23.3884 32.3194 23.0995L34.7433 21.2397L30.3008 8.24981C29.9282 8.57379 29.4991 8.84484 29.0185 9.04396C19.9108 12.8165 12.8176 19.9098 9.04519 29.0173C8.91405 29.334 8.75111 29.6281 8.56317 29.899L10.8645 30.7195C10.9448 30.0262 11.211 29.3648 11.6469 28.7967C12.2825 27.9682 13.2028 27.437 14.238 27.3007C14.4115 27.2779 14.5844 27.2665 14.7564 27.2665C15.6113 27.2665 16.4384 27.5458 17.128 28.075C17.9565 28.7107 18.4877 29.6308 18.6241 30.6662C18.7464 31.5956 18.5295 32.5162 18.0425 33.2788L28.7251 37.0877L29.1299 36.1103C29.2671 35.7793 29.587 35.5795 29.9243 35.5795C30.0338 35.5795 30.1452 35.6007 30.2528 35.6452C30.6913 35.8268 30.8995 36.3296 30.7179 36.768L30.3461 37.6656L41.7516 41.7324L39.5315 35.241Z" />
<path d="M9.28117 20.945C9.27859 20.949 9.27146 20.96 9.26871 20.9639C9.00557 21.3586 8.47301 21.4646 8.07813 21.2017C7.68394 20.9392 7.57703 20.4065 7.83794 20.0116C8.00251 19.7588 8.27785 19.6209 8.55912 19.6209C8.71828 19.6209 8.87924 19.665 9.02293 19.7574C9.42219 20.0141 9.53778 20.5458 9.28117 20.945Z" />
<path d="M7.97417 23.08C7.13671 24.5483 6.3839 26.0851 5.73671 27.6473C5.55512 28.0859 5.05213 28.2939 4.61394 28.1123C4.1754 27.9307 3.96726 27.428 4.14893 26.9896C4.82354 25.361 5.60832 23.7591 6.48127 22.2285C6.63982 21.9506 6.92995 21.7947 7.22849 21.7947C7.37287 21.7947 7.51922 21.8312 7.65345 21.9077C8.0657 22.1429 8.20938 22.6678 7.97417 23.08Z" />
<path d="M26.8927 33.0011C26.7224 33.0236 26.5494 33.0349 26.3785 33.0349C24.4263 33.0349 22.7617 31.5735 22.5066 29.6357C22.2253 27.4986 23.7349 25.5309 25.872 25.2496C26.0424 25.2271 26.2154 25.2157 26.3862 25.2157C28.3384 25.2157 30.003 26.6771 30.2581 28.6152C30.5394 30.7522 29.0297 32.7197 26.8927 33.0011ZM28.5541 28.8395C28.4111 27.7535 27.4791 26.9346 26.3862 26.9346C26.2901 26.9346 26.1926 26.9409 26.0964 26.9536C24.8989 27.1113 24.0531 28.2138 24.2107 29.4114C24.3537 30.4973 25.2856 31.3161 26.3785 31.3161C26.4746 31.3161 26.5722 31.3097 26.6683 31.297C27.8658 31.1392 28.7117 30.0368 28.5541 28.8395Z" />
<path d="M26.669 22.3116C26.4986 22.3341 26.3257 22.3455 26.1548 22.3455C24.2026 22.3455 22.538 20.8841 22.2829 18.9461C22.1465 17.9108 22.4215 16.8846 23.0572 16.056C23.6928 15.2276 24.613 14.6963 25.6483 14.56C25.8186 14.5375 25.9915 14.5263 26.1622 14.5263C28.1145 14.5263 29.7792 15.9876 30.0343 17.9257C30.3157 20.0626 28.806 22.0301 26.669 22.3116ZM28.3304 18.1499C28.1874 17.0639 27.2553 16.245 26.1624 16.245C26.0664 16.245 25.9689 16.2515 25.8728 16.2641C25.2927 16.3406 24.7771 16.6383 24.4209 17.1024C24.0647 17.5666 23.9106 18.1417 23.987 18.7218C24.13 19.8077 25.062 20.6266 26.1548 20.6266C26.2509 20.6266 26.3484 20.6203 26.4446 20.6075C27.642 20.4498 28.4879 19.3474 28.3304 18.1499Z" />
<path d="M21.001 25.8718L18.3596 26.2196C17.8893 26.2821 17.4574 25.9504 17.3954 25.4799C17.3334 25.0093 17.6647 24.5776 18.1352 24.5157L20.7765 24.1679C20.8146 24.1628 20.8524 24.1604 20.8898 24.1604C21.3144 24.1604 21.6838 24.4752 21.7407 24.9076C21.8028 25.3781 21.4716 25.8099 21.001 25.8718Z" />
<path d="M19.6614 19.5299L19.4282 21.3022C19.3663 21.7728 18.9347 22.1042 18.4641 22.0421C17.9935 21.9801 17.6623 21.5485 17.7242 21.0779L17.9576 19.3056C18.0145 18.8731 18.3837 18.5583 18.8084 18.5583C18.8458 18.5583 18.8836 18.5607 18.9216 18.5657C19.3922 18.6277 19.7234 19.0593 19.6614 19.5299Z" />
</g>
<defs>
<clipPath id="clip0_11481_287">
<rect width="44" height="44" fill="white" transform="matrix(1 0 0 -1 0 44)"/>
</clipPath>
</defs>
</svg>
