<svg width="44" height="44" viewBox="0 0 44 44" fill="currentColor" xmlns="http://www.w3.org/2000/svg">
<path d="M31.1581 14.8294L30.6873 13.2799C30.0893 11.5197 28.1776 10.5777 26.4174 11.1757C25.4272 11.5121 24.6496 12.2897 24.3132 13.2799L23.8424 14.8294C23.4462 16.1362 23.3631 17.5179 23.5997 18.8628C23.8154 19.995 24.5343 20.9678 25.5533 21.5064L25.026 33.2933C24.9554 33.9512 25.1688 34.608 25.6127 35.0988C26.5672 36.1429 28.1875 36.2155 29.2316 35.2609C29.288 35.2093 29.3421 35.1552 29.3937 35.0988C29.8277 34.6219 30.0407 33.9844 29.9804 33.3424L29.4502 21.505C30.4678 20.9661 31.1854 19.9939 31.4008 18.8628C31.6374 17.5179 31.5543 16.1362 31.1581 14.8294ZM29.9562 18.6076C29.7974 19.421 29.2177 20.0884 28.4345 20.3595C28.1372 20.4712 27.9458 20.7616 27.9601 21.0789L28.5174 33.4583C28.5431 33.7011 28.4629 33.9432 28.2974 34.1227C27.8558 34.5599 27.1447 34.5599 26.7031 34.1227C26.5293 33.9287 26.4504 33.6677 26.4875 33.4099L27.0405 21.0789C27.0548 20.7616 26.8633 20.4712 26.566 20.3595C25.7828 20.0884 25.2031 19.421 25.0443 18.6076C24.8482 17.4911 24.9173 16.344 25.246 15.2592L25.7168 13.7089C26.0811 12.7239 27.1748 12.2208 28.1599 12.5851C28.6806 12.7777 29.0911 13.1882 29.2837 13.7089L29.7545 15.2592C30.0829 16.3441 30.152 17.4911 29.9562 18.6076Z" />
<path d="M19.7999 11C19.3949 11 19.0666 11.3284 19.0666 11.7333V18.0297L17.0814 20.0149C16.9346 20.1612 16.8565 20.3629 16.8666 20.57L17.5082 33.4033C17.5235 33.6801 17.4231 33.9508 17.231 34.1506C16.8296 34.5556 16.1758 34.5585 15.7708 34.157C15.7686 34.1549 15.7665 34.1527 15.7644 34.1506C15.5722 33.9508 15.4718 33.6801 15.4872 33.4033L16.1332 20.57C16.1435 20.363 16.0657 20.1614 15.9191 20.0149L13.9332 18.0297V11.7333C13.9332 11.3284 13.6049 11 13.1999 11C12.7949 11 12.4666 11.3284 12.4666 11.7333V18.3333C12.4666 18.5279 12.5439 18.7143 12.6814 18.8518L14.6512 20.8223L14.0256 33.3322C13.9591 34.6987 15.0129 35.8605 16.3793 35.927C17.7458 35.9936 18.9076 34.9398 18.9742 33.5733C18.9781 33.493 18.9781 33.4126 18.9742 33.3323L18.3486 20.8224L20.3184 18.8519C20.4559 18.7144 20.5332 18.5279 20.5332 18.3334V11.7334C20.5332 11.3284 20.2049 11 19.7999 11Z" />
<path d="M15.4001 11C14.9951 11 14.6667 11.3283 14.6667 11.7333V17.6C14.6667 18.005 14.9951 18.3333 15.4001 18.3333C15.8051 18.3333 16.1334 18.005 16.1334 17.6V11.7333C16.1334 11.3283 15.8051 11 15.4001 11Z" />
<path d="M17.6 11C17.195 11 16.8667 11.3283 16.8667 11.7333V17.6C16.8667 18.005 17.195 18.3333 17.6 18.3333C18.005 18.3333 18.3334 18.005 18.3334 17.6V11.7333C18.3334 11.3283 18.005 11 17.6 11Z" />
<path d="M22 0C9.84977 0 0 9.84977 0 22C0 34.1502 9.84977 44 22 44C34.1502 44 44 34.1502 44 22C43.9863 9.85545 34.1446 0.01375 22 0ZM22 42.5333C10.6597 42.5333 1.46667 33.3403 1.46667 22C1.46667 10.6597 10.6597 1.46667 22 1.46667C33.3403 1.46667 42.5333 10.6597 42.5333 22C42.5204 33.3349 33.3349 42.5204 22 42.5333Z" />
<path d="M24.3804 35.7661C24.3411 35.3629 23.9824 35.0678 23.5793 35.1072C23.5698 35.1081 23.5604 35.1092 23.551 35.1105L23.5539 35.1097C22.5214 35.2297 21.4785 35.2297 20.446 35.1097C20.0436 35.0625 19.6792 35.3506 19.632 35.7532C19.5848 36.1558 19.8727 36.5204 20.2752 36.5676C21.4202 36.7014 22.5768 36.7014 23.7218 36.5676C24.1249 36.5284 24.4198 36.1695 24.3804 35.7661Z" />
<path d="M33.2201 12.5503C32.9598 12.24 32.4973 12.1994 32.187 12.4597C32.186 12.4606 32.1849 12.4615 32.1838 12.4623C31.8743 12.7234 31.8349 13.1859 32.0958 13.4956C36.5174 18.7444 36.1792 26.5057 31.3178 31.35C31.0309 31.636 31.03 32.1004 31.3159 32.3873C31.6019 32.6743 32.0663 32.6751 32.3532 32.3892C37.7558 27.0071 38.1326 18.383 33.2201 12.5503Z" />
<path d="M17.086 9.69412C17.0855 9.69412 17.0851 9.69312 17.0846 9.69312C17.0839 9.69312 17.0832 9.69412 17.0823 9.69412H17.086Z" />
<path d="M25.4593 7.74329C22.5933 7.05643 19.5876 7.24105 16.8272 8.27349C16.4481 8.41603 16.2564 8.83898 16.3989 9.21802C16.5064 9.50375 16.7795 9.69285 17.0847 9.69313C17.1724 9.69267 17.2593 9.67663 17.3413 9.64555C19.8271 8.71596 22.5338 8.54996 25.1146 9.16889C25.5083 9.26404 25.9046 9.02213 25.9997 8.62842C26.0949 8.23471 25.853 7.83844 25.4593 7.74329Z" />
<path d="M12.6492 31.3133C10.1771 28.8454 8.79154 25.4932 8.79997 22C8.79273 19.2091 9.67677 16.4888 11.3234 14.2354C11.5667 13.9117 11.5016 13.452 11.1778 13.2086C10.854 12.9652 10.3943 13.0304 10.151 13.3542C10.1466 13.3599 10.1424 13.3657 10.1383 13.3716C5.89845 19.2005 6.52233 27.2462 11.6101 32.3517C11.8968 32.6386 12.362 32.6388 12.6489 32.3521C12.9358 32.0653 12.936 31.6002 12.6492 31.3133Z" />
</svg>
