<svg width="34" height="34" viewBox="0 0 34 34" fill="none" xmlns="http://www.w3.org/2000/svg">
<g id="stopwatch 1" clip-path="url(#clip0_11517_117)">
<g id="XMLID_981_">
<g id="XMLID_290_">
<g id="XMLID_291_">
<path id="XMLID_292_" d="M31.7543 12.8812L32.7503 11.8852C33.0383 11.5974 33.1969 11.2145 33.1969 10.8074C33.1969 10.4003 33.0383 10.0174 32.7504 9.72956L31.6096 8.58877C31.3217 8.3009 30.9389 8.14232 30.5318 8.14232C30.1246 8.14232 29.7418 8.3009 29.454 8.58877L28.4579 9.5848C27.1434 8.67935 25.6517 8.01369 24.046 7.65158V6.17942H24.6521C25.4727 6.17942 26.1403 5.51178 26.1403 4.6912V2.62079C26.1403 1.80014 25.4727 1.13249 24.6521 1.13249H17.8004C16.9798 1.13249 16.3122 1.80014 16.3122 2.62079V4.69113C16.3122 5.51171 16.9798 6.17936 17.8004 6.17936H18.4064V7.65563C16.8081 8.01874 15.3231 8.68287 14.0137 9.58473L13.0177 8.5887C12.7299 8.30083 12.347 8.14226 11.94 8.14226C11.5327 8.14226 11.15 8.30083 10.8621 8.5887L9.72132 9.7295C9.12706 10.3238 9.12706 11.2908 9.72132 11.8852L9.8979 12.0617H5.19077C4.82407 12.0617 4.52671 12.359 4.52671 12.7258C4.52671 13.0926 4.82407 13.3899 5.19077 13.3899H10.3845C9.88966 14.1868 9.48 15.0417 9.16863 15.9423H0.664061C0.297367 15.9423 0 16.2396 0 16.6064C0 16.9731 0.297367 17.2704 0.664061 17.2704H8.78898C8.60165 18.0941 8.4942 18.9477 8.47521 19.8229H4.24999C3.8833 19.8229 3.58593 20.1202 3.58593 20.487C3.58593 20.8537 3.8833 21.151 4.24999 21.151H8.51492C8.58671 22.0298 8.74801 22.8836 8.98946 23.7035H3.32031C2.95361 23.7035 2.65624 24.0008 2.65624 24.3675C2.65624 24.7343 2.95361 25.0316 3.32031 25.0316H9.46181C11.3938 29.63 15.9436 32.8675 21.2358 32.8675C28.274 32.8675 34 27.1415 34 20.1033C34 17.4246 33.1699 14.9364 31.7543 12.8812ZM30.3931 9.52789C30.4406 9.48041 30.4947 9.47045 30.5318 9.47045C30.5689 9.47045 30.623 9.48041 30.6705 9.52789L31.8113 10.6687C31.8588 10.7162 31.8688 10.7703 31.8688 10.8074C31.8688 10.8445 31.8588 10.8986 31.8112 10.9461L30.9382 11.8192C30.5031 11.3104 30.0288 10.8361 29.52 10.401L30.3931 9.52789ZM17.6403 4.6912V2.62079C17.6403 2.53247 17.7122 2.46061 17.8004 2.46061H24.6521C24.7403 2.46061 24.8122 2.53247 24.8122 2.62079V4.69113C24.8122 4.77945 24.7403 4.85124 24.6521 4.85124H23.382H19.0704H17.8004C17.7122 4.8513 17.6403 4.77945 17.6403 4.6912ZM19.7345 6.17942H22.7179V7.42567C22.2315 7.36916 21.7372 7.33914 21.2359 7.33914C20.7279 7.33914 20.2272 7.36989 19.7346 7.42786L19.7345 6.17942ZM10.6604 10.6686L11.8012 9.52782C11.8486 9.48034 11.9028 9.47038 11.9399 9.47038C11.9769 9.47038 12.0311 9.48034 12.0786 9.52782L12.9516 10.4009C12.4428 10.836 11.9686 11.3103 11.5335 11.8191L10.6604 10.9461C10.5839 10.8696 10.5839 10.7451 10.6604 10.6686ZM21.2358 31.5393C14.93 31.5393 9.79975 26.4091 9.79975 20.1033C9.79975 13.7974 14.93 8.6672 21.2358 8.6672C27.5417 8.6672 32.6719 13.7974 32.6719 20.1033C32.6719 26.4091 27.5417 31.5393 21.2358 31.5393Z" fill="#FF6838"/>
<path id="XMLID_899_" d="M25.6188 14.7811L22.4797 17.9202C22.1126 17.7102 21.6881 17.5895 21.2358 17.5895C19.8497 17.5895 18.722 18.7171 18.722 20.1033C18.722 21.4894 19.8497 22.617 21.2358 22.617C22.6219 22.617 23.7495 21.4894 23.7495 20.1033C23.7495 19.6509 23.6288 19.2265 23.4188 18.8594L26.5579 15.7203C26.8172 15.461 26.8172 15.0405 26.5579 14.7811C26.2985 14.5218 25.8782 14.5218 25.6188 14.7811ZM21.2358 21.289C20.582 21.289 20.0502 20.7571 20.0502 20.1034C20.0502 19.4496 20.5821 18.9177 21.2358 18.9177C21.8895 18.9177 22.4214 19.4496 22.4214 20.1034C22.4214 20.7571 21.8896 21.289 21.2358 21.289Z" fill="#FF6838"/>
<path id="XMLID_900_" d="M21.2361 11.4937C21.4107 11.4937 21.582 11.4226 21.7055 11.2991C21.829 11.1756 21.9001 11.0042 21.9001 10.8296C21.9001 10.6549 21.8291 10.4836 21.7055 10.3601C21.582 10.2366 21.4107 10.1655 21.2361 10.1655C21.0614 10.1655 20.8901 10.2366 20.7666 10.3601C20.643 10.4836 20.572 10.6549 20.572 10.8296C20.572 11.0049 20.643 11.1756 20.7666 11.2991C20.8901 11.4226 21.0614 11.4937 21.2361 11.4937Z" fill="#FF6838"/>
<path id="XMLID_901_" d="M21.2361 28.7127C21.0614 28.7127 20.8901 28.7838 20.7666 28.9073C20.643 29.0308 20.572 29.2021 20.572 29.3768C20.572 29.5521 20.643 29.7228 20.7666 29.8463C20.8901 29.9705 21.0614 30.0409 21.2361 30.0409C21.4107 30.0409 21.582 29.9705 21.7055 29.8463C21.829 29.7228 21.9001 29.5514 21.9001 29.3768C21.9001 29.2021 21.8291 29.0308 21.7055 28.9073C21.582 28.7838 21.4107 28.7127 21.2361 28.7127Z" fill="#FF6838"/>
<path id="XMLID_902_" d="M14.6784 12.8815C14.5038 12.8815 14.3325 12.9525 14.2089 13.0761C14.0854 13.1996 14.0144 13.3709 14.0144 13.5455C14.0144 13.7209 14.0854 13.8915 14.2089 14.0157C14.3325 14.1392 14.5038 14.2096 14.6784 14.2096C14.8531 14.2096 15.0244 14.1392 15.1479 14.0157C15.2714 13.8915 15.3425 13.7209 15.3425 13.5455C15.3425 13.3709 15.2714 13.2002 15.1479 13.0761C15.0244 12.9525 14.8531 12.8815 14.6784 12.8815Z" fill="#FF6838"/>
<path id="XMLID_903_" d="M27.7937 25.9967C27.6183 25.9967 27.4477 26.0678 27.3235 26.1913C27.2 26.3148 27.1296 26.4861 27.1296 26.6608C27.1296 26.8354 27.2 27.0068 27.3235 27.1303C27.4477 27.2538 27.6183 27.3248 27.7937 27.3248C27.9683 27.3248 28.1396 27.2538 28.2631 27.1303C28.3866 27.0068 28.4577 26.8354 28.4577 26.6608C28.4577 26.4861 28.3867 26.3148 28.2631 26.1913C28.1396 26.0678 27.9683 25.9967 27.7937 25.9967Z" fill="#FF6838"/>
<path id="XMLID_904_" d="M14.6784 25.9967C14.5038 25.9967 14.3325 26.0678 14.2089 26.1913C14.0854 26.3148 14.0144 26.4861 14.0144 26.6608C14.0144 26.8354 14.0854 27.0068 14.2089 27.1303C14.3325 27.2538 14.5038 27.3248 14.6784 27.3248C14.8531 27.3248 15.0244 27.2538 15.1479 27.1303C15.2714 27.0068 15.3425 26.8354 15.3425 26.6608C15.3425 26.4861 15.2714 26.3148 15.1479 26.1913C15.0244 26.0678 14.8531 25.9967 14.6784 25.9967Z" fill="#FF6838"/>
<path id="XMLID_905_" d="M11.9625 19.4391C11.7872 19.4391 11.6165 19.5102 11.493 19.6337C11.3689 19.7572 11.2984 19.9285 11.2984 20.1032C11.2984 20.2778 11.3689 20.4491 11.493 20.5727C11.6165 20.6968 11.7872 20.7672 11.9625 20.7672C12.1371 20.7672 12.3084 20.6968 12.432 20.5727C12.5554 20.4491 12.6265 20.2778 12.6265 20.1032C12.6265 19.9285 12.5555 19.7572 12.432 19.6337C12.3084 19.5102 12.1371 19.4391 11.9625 19.4391Z" fill="#FF6838"/>
<path id="XMLID_906_" d="M30.9791 19.6337C30.8556 19.5102 30.6843 19.4391 30.5096 19.4391C30.3343 19.4391 30.1636 19.5102 30.0402 19.6337C29.9167 19.7572 29.8456 19.9285 29.8456 20.1032C29.8456 20.2785 29.9166 20.4491 30.0402 20.5727C30.1636 20.6962 30.335 20.7672 30.5096 20.7672C30.6843 20.7672 30.8556 20.6962 30.9791 20.5727C31.1026 20.4491 31.1737 20.2778 31.1737 20.1032C31.1736 19.9285 31.1026 19.7573 30.9791 19.6337Z" fill="#FF6838"/>
<path id="XMLID_912_" d="M0.664062 23.7037C0.489414 23.7037 0.318086 23.7741 0.19457 23.8976C0.0710547 24.0218 0 24.1925 0 24.3678C0 24.5424 0.0709883 24.7131 0.19457 24.8373C0.318086 24.9608 0.489414 25.0318 0.664062 25.0318C0.838711 25.0318 1.01004 24.9608 1.13349 24.8373C1.257 24.7137 1.32812 24.5424 1.32812 24.3678C1.32812 24.1925 1.25707 24.0211 1.13349 23.8976C1.01004 23.7741 0.838711 23.7037 0.664062 23.7037Z" fill="#FF6838"/>
<path id="XMLID_916_" d="M30.3142 18.0869C30.6656 17.9822 30.8657 17.6124 30.761 17.2609C30.2915 15.6856 29.425 14.236 28.2553 13.0687C27.0853 11.9013 25.6336 11.0379 24.057 10.5719C23.7054 10.4679 23.3359 10.6688 23.232 11.0205C23.128 11.3722 23.3288 11.7416 23.6806 11.8455C26.4825 12.6737 28.6536 14.8399 29.4882 17.6402C29.574 17.9284 29.8382 18.1147 30.1243 18.1147C30.187 18.1148 30.2509 18.1057 30.3142 18.0869Z" fill="#FF6838"/>
</g>
</g>
</g>
</g>
<defs>
<clipPath id="clip0_11517_117">
<rect width="34" height="34" fill="white"/>
</clipPath>
</defs>
</svg>
