<svg width="20" height="21" viewBox="0 0 20 21" fill="none" xmlns="http://www.w3.org/2000/svg">
<path d="M1.22192 1.5L3.24571 1.85916L4.18269 13.3054C4.25761 14.2402 5.01944 14.9575 5.93404 14.9545H16.5482C17.421 14.9565 18.1614 14.298 18.285 13.4121L19.2083 6.86943C19.3115 6.13814 18.8162 5.45973 18.104 5.35397C18.0417 5.345 3.57069 5.34001 3.57069 5.34001"  stroke-width="1.5" stroke-linecap="round" stroke-linejoin="round"/>
<path d="M12.2895 9.02741H14.9875"  stroke-width="1.5" stroke-linecap="round" stroke-linejoin="round"/>
<path fill-rule="evenodd" clip-rule="evenodd" d="M5.50715 18.4131C5.79998 18.4131 6.03639 18.6566 6.03639 18.9561C6.03639 19.2565 5.79998 19.5001 5.50715 19.5001C5.21431 19.5001 4.97791 19.2565 4.97791 18.9561C4.97791 18.6566 5.21431 18.4131 5.50715 18.4131Z" fill="#31352B"  stroke-width="1.5" stroke-linecap="round" stroke-linejoin="round"/>
<path fill-rule="evenodd" clip-rule="evenodd" d="M16.4827 18.4131C16.7755 18.4131 17.0129 18.6566 17.0129 18.9561C17.0129 19.2565 16.7755 19.5001 16.4827 19.5001C16.1898 19.5001 15.9534 19.2565 15.9534 18.9561C15.9534 18.6566 16.1898 18.4131 16.4827 18.4131Z" fill="#31352B"  stroke-width="1.5" stroke-linecap="round" stroke-linejoin="round"/>
</svg>
