<svg version="1.1" xmlns="http://www.w3.org/2000/svg" xmlns:xlink="http://www.w3.org/1999/xlink" width="180" height="53.333" viewBox="0,0,256,75.84375"><g fill="none" fill-rule="nonzero" stroke="none" stroke-width="none" stroke-linecap="butt" stroke-linejoin="miter" stroke-miterlimit="10" stroke-dasharray="" stroke-dashoffset="0" font-family="none" font-weight="none" font-size="none" text-anchor="none" style="mix-blend-mode: normal"><g transform="translate(0,-0.00452) scale(1.42222,1.42222)"><path d="M173.33,53.333h-166.66c-3.6666,0 -6.6665,-2.9999 -6.6665,-6.6665v-39.999c0,-3.6666 2.9999,-6.6665 6.6665,-6.6665h166.66c3.6666,0 6.6665,2.9999 6.6665,6.6665v39.999c0,3.6666 -2.9999,6.6665 -6.6665,6.6665" id="path11" fill="#31352b" stroke="none" stroke-width="0.13333"></path><path d="M173.33,0.001h-166.66c-3.6666,0 -6.6665,2.9999 -6.6665,6.6665v39.999c0,3.6666 2.9999,6.6665 6.6665,6.6665h166.66c3.6666,0 6.6665,-2.9999 6.6665,-6.6665v-39.999c0,-3.6666 -2.9999,-6.6665 -6.6665,-6.6665zM173.33,1.0671c3.0879,0 5.5999,2.5125 5.5999,5.6004v39.999c0,3.0879 -2.5119,5.6004 -5.5999,5.6004h-166.66c-3.0879,0 -5.5993,-2.5125 -5.5993,-5.6004v-39.999c0,-3.0879 2.5114,-5.6004 5.5993,-5.6004h166.66" id="path13" fill="#a2a2a1" stroke="none" stroke-width="0.13333"></path><path d="M142.58,40h2.4879v-16.669h-2.4879zM164.989,29.336l-2.8519,7.2264h-0.0853l-2.9599,-7.2264h-2.6799l4.4399,10.1l-2.5319,5.6185h2.5946l6.8412,-15.718zM150.879,38.1066c-0.81331,0 -1.9506,-0.40786 -1.9506,-1.4156c0,-1.2865 1.416,-1.7797 2.6373,-1.7797c1.0933,0 1.6093,0.23546 2.2733,0.55732c-0.19333,1.5442 -1.5226,2.6379 -2.9599,2.6379zM151.18033,28.9714c-1.8013,0 -3.6666,0.79371 -4.4386,2.5521l2.208,0.92184c0.47198,-0.92184 1.3506,-1.2218 2.2733,-1.2218c1.2866,0 2.5946,0.77131 2.6159,2.1442v0.17133c-0.45066,-0.25733 -1.416,-0.64318 -2.5946,-0.64318c-2.3813,0 -4.8039,1.3077 -4.8039,3.7524c0,2.2302 1.952,3.6671 4.1386,3.6671c1.672,0 2.5959,-0.75054 3.1732,-1.6301h0.0867v1.2874h2.4026v-6.391c0,-2.9593 -2.2106,-4.6103 -5.0612,-4.6103zM135.80433,31.3651h-3.5386v-5.7133h3.5386c1.86,0 2.9159,1.5396 2.9159,2.8566c0,1.2917 -1.056,2.8567 -2.9159,2.8567zM135.74033,23.3314h-5.9614v16.669h2.4869v-6.3149h3.4746c2.7573,0 5.4679,-1.9958 5.4679,-5.1765c0,-3.1801 -2.7106,-5.1769 -5.4679,-5.1769zM103.23333,38.1094c-1.7188,0 -3.1573,-1.4396 -3.1573,-3.415c0,-1.9984 1.4385,-3.4583 3.1573,-3.4583c1.6969,0 3.0286,1.46 3.0286,3.4583c0,1.9754 -1.3317,3.415 -3.0286,3.415zM106.09003,30.2691h-0.086c-0.55826,-0.66572 -1.6328,-1.2672 -2.9853,-1.2672c-2.8359,0 -5.4348,2.4921 -5.4348,5.6925c0,3.1786 2.5989,5.6488 5.4348,5.6488c1.3525,0 2.427,-0.6016 2.9853,-1.2885h0.086v0.81558c0,2.1703 -1.1598,3.3296 -3.0286,3.3296c-1.5245,0 -2.4697,-1.0953 -2.8567,-2.0188l-2.1691,0.90206c0.62238,1.503 2.2759,3.351 5.0259,3.351c2.9218,0 5.392,-1.7188 5.392,-5.9077v-10.181h-2.3634zM110.17223,39.9995h2.4906v-16.669h-2.4906zM116.33623,34.5007c-0.0641,-2.1911 1.6978,-3.3078 2.9645,-3.3078c0.98851,0 1.8254,0.49425 2.1057,1.2026zM124.06883,32.6101c-0.47238,-1.2666 -1.9114,-3.6082 -4.8541,-3.6082c-2.9218,0 -5.3488,2.2983 -5.3488,5.6707c0,3.1791 2.4062,5.6707 5.6275,5.6707c2.5989,0 4.1031,-1.589 4.7264,-2.513l-1.9333,-1.289c-0.64465,0.94531 -1.5249,1.5682 -2.7931,1.5682c-1.2666,0 -2.1692,-0.58012 -2.7483,-1.7186l7.5815,-3.1359zM63.65983,30.7419v2.4057h5.7565c-0.17186,1.3532 -0.62292,2.3411 -1.3104,3.0286c-0.83798,0.83745 -2.1483,1.7614 -4.4462,1.7614c-3.5443,0 -6.315,-2.8567 -6.315,-6.4009c0,-3.5442 2.7707,-6.4013 6.315,-6.4013c1.9118,0 3.3077,0.75198 4.3388,1.7186l1.6974,-1.6973c-1.4396,-1.3745 -3.351,-2.427 -6.0362,-2.427c-4.8552,0 -8.9363,3.9524 -8.9363,8.807c0,4.8541 4.0811,8.8066 8.9363,8.8066c2.6202,0 4.5967,-0.85932 6.143,-2.4702c1.5896,-1.5896 2.0838,-3.8234 2.0838,-5.628c0,-0.55785 -0.04333,-1.0734 -0.1292,-1.5032zM78.43183,38.1094c-1.7188,0 -3.201,-1.4177 -3.201,-3.4368c0,-2.0406 1.4822,-3.4364 3.201,-3.4364c1.7181,0 3.2003,1.3958 3.2003,3.4364c0,2.0191 -1.4822,3.4368 -3.2003,3.4368zM78.43183,29.0019c-3.137,0 -5.6927,2.3842 -5.6927,5.6707c0,3.265 2.5557,5.6707 5.6927,5.6707c3.1358,0 5.692,-2.4057 5.692,-5.6707c0,-3.2865 -2.5562,-5.6707 -5.692,-5.6707zM90.84883,38.1094c-1.7176,0 -3.2003,-1.4177 -3.2003,-3.4368c0,-2.0406 1.4828,-3.4364 3.2003,-3.4364c1.7188,0 3.2005,1.3958 3.2005,3.4364c0,2.0191 -1.4817,3.4368 -3.2005,3.4368zM90.84883,29.0019c-3.1358,0 -5.6915,2.3842 -5.6915,5.6707c0,3.265 2.5557,5.6707 5.6915,5.6707c3.137,0 5.6927,-2.4057 5.6927,-5.6707c0,-3.2865 -2.5557,-5.6707 -5.6927,-5.6707" id="path35" fill="#ffffff" stroke="none" stroke-width="0.13333"></path><path d="M27.622,25.899l-14.194,15.066c0.00053,0.0031 0.0016,0.0057 0.0021,0.0089c0.43532,1.636 1.9296,2.8406 3.703,2.8406c0.70892,0 1.3745,-0.19166 1.9453,-0.52812l0.04533,-0.02656l15.978,-9.22l-7.479,-8.141" id="path37" fill="#eb3131" stroke="none" stroke-width="0.13333"></path><path d="M41.983,23.334l-0.0136,-0.0093l-6.8982,-3.999l-7.7717,6.9156l7.7987,7.7977l6.8618,-3.9592c1.203,-0.64945 2.0197,-1.9177 2.0197,-3.3802c0,-1.452 -0.80571,-2.7139 -1.9968,-3.3655" id="path39" fill="#f6b60b" stroke="none" stroke-width="0.13333"></path><path d="M13.426,12.37c-0.08533,0.31466 -0.13018,0.64425 -0.13018,0.98651v26.623c0,0.34162 0.04432,0.67233 0.13072,0.98587l14.684,-14.681l-14.684,-13.914" id="path41" fill="#5778c5" stroke="none" stroke-width="0.13333"></path><path d="M27.727,26.668l7.3473,-7.3451l-15.96,-9.2534c-0.58012,-0.34746 -1.2572,-0.54799 -1.9817,-0.54799c-1.7734,0 -3.2697,1.2068 -3.7051,2.8447c-0.00053,0.0016 -0.00053,0.0027 -0.00053,0.0041l14.3,14.298" id="path43" fill="#3bad49" stroke="none" stroke-width="0.13333"></path><path d="M63.193,13.042h-3.8895v0.96251h2.9146c-0.0792,0.78545 -0.39172,1.4021 -0.91878,1.85c-0.52705,0.44799 -1.2,0.67292 -1.9958,0.67292c-0.87291,0 -1.6125,-0.30413 -2.2186,-0.90824c-0.59385,-0.61665 -0.89584,-1.3792 -0.89584,-2.2979c0,-0.91864 0.30199,-1.6812 0.89584,-2.2978c0.60612,-0.60412 1.3457,-0.90624 2.2186,-0.90624c0.44799,0 0.87504,0.07707 1.2666,0.24586c0.39172,0.16866 0.70625,0.40412 0.95211,0.70625l0.73958,-0.73958c-0.33546,-0.38132 -0.76038,-0.67292 -1.2876,-0.88544c-0.52705,-0.21253 -1.077,-0.31453 -1.6708,-0.31453c-1.1645,0 -2.1519,0.40412 -2.9582,1.2104c-0.80625,0.80825 -1.2104,1.8041 -1.2104,2.9811c0,1.177 0.40412,2.175 1.2104,2.9813c0.80625,0.80611 1.7937,1.2104 2.9582,1.2104c1.2229,0 2.1979,-0.39172 2.9479,-1.1876c0.66038,-0.66238 0.99784,-1.5582 0.99784,-2.679c0,-0.1896 -0.02293,-0.39172 -0.05627,-0.60425zM64.6998,9.3088v8.0249h4.6852v-0.98544h-3.654v-2.5457h3.2958v-0.96251h-3.2958v-2.5437h3.654v-0.98758zM75.9548,10.29638v-0.98758h-5.5145v0.98758h2.2417v7.0373h1.0312v-7.0373zM80.9473,9.3088h-1.0312v8.0249h1.0312zM87.7539,10.29638v-0.98758h-5.5144v0.98758h2.2415v7.0373h1.0312v-7.0373zM98.1599,10.35264c-0.79585,-0.81877 -1.7708,-1.2229 -2.9354,-1.2229c-1.1666,0 -2.1415,0.40412 -2.9374,1.2104c-0.79585,0.79585 -1.1874,1.7937 -1.1874,2.9811c0,1.1874 0.39159,2.1854 1.1874,2.9813c0.79585,0.80611 1.7708,1.2104 2.9374,1.2104c1.1541,0 2.1395,-0.40426 2.9354,-1.2104c0.79585,-0.79585 1.1874,-1.7938 1.1874,-2.9813c0,-1.177 -0.39159,-2.1729 -1.1874,-2.9686zM93.0267,11.02342c0.59372,-0.60412 1.3229,-0.90624 2.1978,-0.90624c0.87291,0 1.6021,0.30213 2.1854,0.90624c0.59372,0.59372 0.88531,1.3686 0.88531,2.2978c0,0.93131 -0.29159,1.7041 -0.88531,2.2979c-0.58332,0.60412 -1.3125,0.90824 -2.1854,0.90824c-0.87491,0 -1.6041,-0.30413 -2.1978,-0.90824c-0.58132,-0.60625 -0.87291,-1.3666 -0.87291,-2.2979c0,-0.92918 0.29159,-1.6916 0.87291,-2.2978zM101.7973,12.33592l-0.0437,-1.548h0.0437l4.0791,6.5457h1.077v-8.0249h-1.0312v4.6957l0.0437,1.548h-0.0437l-3.8999,-6.2437h-1.2562v8.0249h1.0312z" id="path33" fill="#ffffff" stroke="#ffffff" stroke-width="0.26666"></path></g></g></svg>