<svg width="16" height="16" viewBox="0 0 16 16" fill="none" xmlns="http://www.w3.org/2000/svg">
<g id="icon">
<g id="Group">
<path id="Vector" d="M10 14.6667C9.74869 14.6667 9.51669 14.5247 9.40336 14.298L7.42469 10.3407C7.31602 10.1233 7.33469 9.86334 7.47269 9.66268L10.6667 5.33334L6.33669 8.52668C6.13602 8.66534 5.87602 8.68268 5.65869 8.57468L1.70202 6.59668C1.46469 6.47734 1.32002 6.22868 1.33469 5.96334C1.34869 5.69801 1.52002 5.46601 1.76936 5.37468L14.436 0.708009C14.6794 0.619342 14.9534 0.677342 15.138 0.862009C15.322 1.04534 15.382 1.32001 15.292 1.56401L10.6254 14.2307C10.5334 14.48 10.302 14.6513 10.0367 14.6653C10.0247 14.666 10.012 14.6667 10 14.6667Z" fill="currentColor"/>
</g>
</g>
</svg>
