<svg width="22" height="23" viewBox="0 0 22 23" fill="none" xmlns="http://www.w3.org/2000/svg">
<g id="timer 1" opacity="0.9">
<g id="Group">
<path id="Vector" d="M11.5748 3.0401V2.08126C11.5748 1.91919 11.5104 1.76375 11.3958 1.64914C11.2812 1.53454 11.1257 1.47015 10.9637 1.47015C10.8016 1.47015 10.6462 1.53454 10.5315 1.64914C10.4169 1.76375 10.3526 1.91919 10.3526 2.08126V3.0456C5.55045 3.37926 1.74445 7.38968 1.74445 12.2752C1.74445 17.3777 5.89664 21.5299 11 21.5299C16.1034 21.5299 20.2556 17.3777 20.2556 12.2752C20.2556 7.36524 16.4114 3.33801 11.5748 3.0401ZM11 20.3077C6.57039 20.3077 2.96667 16.7039 2.96667 12.2752C2.96667 7.84588 6.57039 4.24246 11 4.24246C15.4297 4.24246 19.0334 7.84588 19.0334 12.2752C19.0334 16.7039 15.4297 20.3077 11 20.3077Z" fill="#31352B"/>
<path id="Vector_2" d="M7.86295 17.8216C5.86798 16.6901 4.62864 14.5644 4.62864 12.2749C4.62864 12.1056 4.49206 11.9693 4.32309 11.9693C4.15412 11.9693 4.01753 12.1056 4.01753 12.2749C4.01753 14.7841 5.37573 17.1133 7.56167 18.3536C7.63221 18.3935 7.71574 18.4038 7.79387 18.3822C7.872 18.3606 7.93834 18.3088 7.9783 18.2382C8.01825 18.1677 8.02854 18.0842 8.00691 18.006C7.98528 17.9279 7.93349 17.8616 7.86295 17.8216Z" fill="#31352B"/>
<path id="Vector_3" d="M9.52923 18.6598C9.41091 18.6289 9.29343 18.5949 9.17693 18.5578C9.10021 18.5348 9.01754 18.5429 8.94672 18.5802C8.87589 18.6176 8.82257 18.6813 8.79822 18.7576C8.77387 18.8339 8.78044 18.9167 8.81653 18.9882C8.85261 19.0596 8.91531 19.1141 8.99115 19.1398C9.11826 19.1808 9.24598 19.2175 9.37646 19.2508C9.4549 19.271 9.53817 19.2593 9.60796 19.2181C9.67775 19.177 9.72835 19.1098 9.74862 19.0314C9.75868 18.9926 9.76098 18.9522 9.75539 18.9125C9.7498 18.8728 9.73643 18.8346 9.71605 18.8001C9.69567 18.7655 9.66868 18.7354 9.63662 18.7113C9.60456 18.6872 9.56807 18.6697 9.52923 18.6598Z" fill="#31352B"/>
<path id="Vector_4" d="M18.8854 6.22794C19.0002 6.34236 19.1557 6.40652 19.3177 6.40629C19.4798 6.40606 19.6351 6.34146 19.7495 6.22671C19.864 6.11196 19.9281 5.95646 19.9279 5.7944C19.9277 5.63235 19.8631 5.47703 19.7483 5.3626L18.1616 3.77983C18.1048 3.72311 18.0374 3.67814 17.9632 3.6475C17.889 3.61686 17.8095 3.60114 17.7293 3.60126C17.649 3.60137 17.5695 3.61731 17.4955 3.64816C17.4214 3.67901 17.3541 3.72417 17.2975 3.78105C17.1831 3.89585 17.119 4.05134 17.1193 4.21336C17.1195 4.37538 17.184 4.53068 17.2987 4.64516L18.8854 6.22794Z" fill="#31352B"/>
<path id="Vector_5" d="M11.5746 12.1613V7.27572C11.5746 7.11365 11.5102 6.95821 11.3956 6.8436C11.281 6.729 11.1256 6.66461 10.9635 6.66461C10.8014 6.66461 10.646 6.729 10.5314 6.8436C10.4168 6.95821 10.3524 7.11365 10.3524 7.27572V12.4253C10.3524 12.5936 10.4401 12.754 10.5623 12.8692L12.3507 14.5406C12.469 14.6518 12.6196 14.7074 12.7702 14.7074C12.8521 14.7076 12.9331 14.6906 13.008 14.6575C13.0828 14.6245 13.15 14.5761 13.2051 14.5156C13.4376 14.2699 13.4168 13.8834 13.1714 13.6518L11.5746 12.1613Z" fill="#31352B"/>
</g>
</g>
</svg>
