<svg width="22" height="23" viewBox="0 0 22 23" fill="none" xmlns="http://www.w3.org/2000/svg">
<g opacity="0.9">
<path d="M11.5748 3.04016V2.08133C11.5748 1.91925 11.5104 1.76381 11.3958 1.64921C11.2812 1.5346 11.1257 1.47021 10.9637 1.47021C10.8016 1.47021 10.6462 1.5346 10.5315 1.64921C10.4169 1.76381 10.3526 1.91925 10.3526 2.08133V3.04566C5.55045 3.37933 1.74445 7.38974 1.74445 12.2753C1.74445 17.3777 5.89664 21.5299 11 21.5299C16.1034 21.5299 20.2556 17.3777 20.2556 12.2753C20.2556 7.3653 16.4114 3.33808 11.5748 3.04016ZM11 20.3077C6.57039 20.3077 2.96667 16.704 2.96667 12.2753C2.96667 7.84594 6.57039 4.24252 11 4.24252C15.4297 4.24252 19.0334 7.84594 19.0334 12.2753C19.0334 16.704 15.4297 20.3077 11 20.3077Z" fill="#31352B"/>
<path d="M7.86293 17.8217C5.86796 16.6902 4.62863 14.5644 4.62863 12.2749C4.62863 12.1056 4.49204 11.9694 4.32307 11.9694C4.1541 11.9694 4.01752 12.1056 4.01752 12.2749C4.01752 14.7841 5.37571 17.1134 7.56166 18.3536C7.6322 18.3936 7.71572 18.4039 7.79386 18.3823C7.87199 18.3606 7.93833 18.3088 7.97828 18.2383C8.01823 18.1678 8.02852 18.0842 8.00689 18.0061C7.98526 17.928 7.93348 17.8616 7.86293 17.8217Z" fill="#31352B"/>
<path d="M9.52923 18.6599C9.41091 18.6291 9.29343 18.595 9.17693 18.5579C9.10021 18.5349 9.01754 18.543 8.94672 18.5804C8.87589 18.6177 8.82257 18.6814 8.79822 18.7577C8.77387 18.834 8.78044 18.9168 8.81653 18.9883C8.85261 19.0598 8.91531 19.1142 8.99115 19.14C9.11826 19.1809 9.24598 19.2176 9.37646 19.2509C9.4549 19.2711 9.53817 19.2594 9.60796 19.2182C9.67775 19.1771 9.72835 19.1099 9.74862 19.0315C9.75868 18.9927 9.76098 18.9523 9.75539 18.9126C9.7498 18.8729 9.73643 18.8347 9.71605 18.8002C9.69567 18.7657 9.66868 18.7355 9.63662 18.7114C9.60456 18.6874 9.56807 18.6699 9.52923 18.6599Z" fill="#31352B"/>
<path d="M18.8854 6.228C19.0002 6.34242 19.1557 6.40658 19.3177 6.40635C19.4798 6.40612 19.6351 6.34153 19.7495 6.22677C19.864 6.11202 19.9281 5.95652 19.9279 5.79447C19.9277 5.63241 19.8631 5.47709 19.7483 5.36266L18.1616 3.77989C18.1048 3.72317 18.0374 3.6782 17.9632 3.64756C17.889 3.61692 17.8095 3.60121 17.7293 3.60132C17.649 3.60143 17.5695 3.61737 17.4955 3.64822C17.4214 3.67907 17.3541 3.72423 17.2975 3.78111C17.1831 3.89591 17.119 4.0514 17.1193 4.21342C17.1195 4.37544 17.184 4.53074 17.2987 4.64522L18.8854 6.228Z" fill="#31352B"/>
<path d="M11.5746 12.1613V7.27578C11.5746 7.11371 11.5102 6.95827 11.3956 6.84366C11.281 6.72906 11.1255 6.66467 10.9635 6.66467C10.8014 6.66467 10.646 6.72906 10.5313 6.84366C10.4167 6.95827 10.3524 7.11371 10.3524 7.27578V12.4253C10.3524 12.5937 10.4401 12.7541 10.5623 12.8693L12.3507 14.5407C12.4689 14.6519 12.6196 14.7075 12.7702 14.7075C12.8521 14.7076 12.933 14.6906 13.0079 14.6576C13.0828 14.6245 13.1499 14.5762 13.205 14.5156C13.4375 14.27 13.4168 13.8834 13.1714 13.6518L11.5746 12.1613Z" fill="#31352B"/>
</g>
</svg>
