<svg width="22" height="18" viewBox="0 0 22 18" fill="currentColor" xmlns="http://www.w3.org/2000/svg">
<path d="M21.0116 2.64303C20.2568 2.96865 19.4353 3.20299 18.5892 3.29427C19.4677 2.77238 20.1255 1.94788 20.4393 0.975465C19.615 1.46584 18.7119 1.8097 17.7702 1.99179C17.3766 1.57102 16.9006 1.23581 16.3718 1.00706C15.843 0.778306 15.2727 0.660908 14.6966 0.662181C12.3654 0.662181 10.4907 2.55176 10.4907 4.87056C10.4907 5.19618 10.5301 5.52179 10.5943 5.83508C7.10374 5.65253 3.99063 3.98497 1.92097 1.43182C1.54386 2.07595 1.34624 2.80936 1.34867 3.55575C1.34867 5.0161 2.09118 6.30377 3.22345 7.06108C2.55619 7.0348 1.90455 6.8514 1.32154 6.52579V6.57759C1.32154 8.62257 2.76709 10.3173 4.69367 10.707C4.33193 10.801 3.95981 10.8491 3.58607 10.8501C3.31225 10.8501 3.05324 10.823 2.79176 10.786C3.32459 12.4535 4.87621 13.6647 6.72385 13.7042C5.2783 14.8365 3.46766 15.5025 1.50162 15.5025C1.14886 15.5025 0.823243 15.4902 0.485291 15.4507C2.3502 16.6471 4.56293 17.3378 6.94586 17.3378C14.6818 17.3378 18.9148 10.929 18.9148 5.36639C18.9148 5.18384 18.9148 5.0013 18.9025 4.81875C19.7215 4.21932 20.4393 3.47681 21.0116 2.64303Z" />
</svg>
